<svg xmlns="http://www.w3.org/2000/svg" width="101" height="30" fill="none" viewBox="0 0 101 30">
  <path fill="#19B5F1" d="M12.54 1.538h16.02L16.782 19.21H.76L12.54 1.54Z"/>
  <path fill="#CA6AEB" d="m13.241 20.847-4.562 6.845H25.46L37.24 10.02H24.854l-7.217 10.827H13.24Z"/>
  <path fill="url(#a)" d="M42 7h2.624l4.045 12.846h.043L52.757 7h2.624L49.96 23h-2.537L42 7Z"/>
  <path fill="url(#b)" d="M67.004 17.834V23h-2.536v-4.526l-1.574-1.805h-4.985V23h-2.537V7h9.315l2.23 2.354v4.915l-1.596 1.668 1.683 1.897Zm-9.095-3.36h5.64l.875-.914v-3.406l-.874-.914h-5.641v5.234Z"/>
  <path fill="url(#c)" d="M68.097 7h2.318l7.215 11.634h.044V7h2.427v16h-2.318l-7.215-11.611h-.044V23h-2.427V7Z"/>
  <path fill="url(#d)" d="M80.876 20.966v-2.697l1.946-2.012h5.62v-1.691l-.81-.846H84.2l-.81.846v.731h-2.426v-1.326l2.23-2.354h5.444l2.23 2.354V23h-2.252v-1.76L86.867 23h-4.045l-1.946-2.034Zm5.75 0 1.815-1.829v-.96h-4.438l-.7.709v1.394l.656.686h2.668Z"/>
  <path fill="url(#e)" d="M91.205 20.874V19.48h2.427v.731l.612.663h3.717l.612-.663v-1.234l-.634-.663h-4.7l-1.947-2.057v-2.56l1.99-2.08h5.488l2.011 2.126v1.394h-2.427v-.731l-.612-.663h-3.41l-.613.663v1.143l.634.662h4.68l1.967 2.08v2.629L99.01 23h-5.794l-2.011-2.126Z"/>
  <defs>
    <linearGradient id="a" x1="42" x2="104" y1="13.5" y2="20.5" gradientUnits="userSpaceOnUse">
      <stop stop-color="#fff"/>
      <stop offset="1" stop-color="#fff" stop-opacity="0"/>
    </linearGradient>
    <linearGradient id="b" x1="42" x2="104" y1="13.5" y2="20.5" gradientUnits="userSpaceOnUse">
      <stop stop-color="#fff"/>
      <stop offset="1" stop-color="#fff" stop-opacity="0"/>
    </linearGradient>
    <linearGradient id="c" x1="42" x2="104" y1="13.5" y2="20.5" gradientUnits="userSpaceOnUse">
      <stop stop-color="#fff"/>
      <stop offset="1" stop-color="#fff" stop-opacity="0"/>
    </linearGradient>
    <linearGradient id="d" x1="42" x2="104" y1="13.5" y2="20.5" gradientUnits="userSpaceOnUse">
      <stop stop-color="#fff"/>
      <stop offset="1" stop-color="#fff" stop-opacity="0"/>
    </linearGradient>
    <linearGradient id="e" x1="42" x2="104" y1="13.5" y2="20.5" gradientUnits="userSpaceOnUse">
      <stop stop-color="#fff"/>
      <stop offset="1" stop-color="#fff" stop-opacity="0"/>
    </linearGradient>
  </defs>
</svg>
